<svg width="339" height="339" viewBox="0 0 339 339" fill="none" xmlns="http://www.w3.org/2000/svg">
    <path d="M65.2655 333.133L185.934 211.529C193.106 214.024 200.277 216.05 207.449 217.609C214.62 219.168 221.948 219.948 229.431 219.948C259.676 219.948 285.4 209.424 306.603 188.378C327.806 167.331 338.407 141.685 338.407 111.44C338.407 101.774 337.16 92.3415 334.666 83.1432C332.171 73.945 328.585 65.2924 323.908 57.1854L256.091 125.003L213.061 84.7802L282.75 15.0917C274.643 10.4146 266.068 6.75087 257.026 4.10052C247.984 1.45018 238.785 0.125 229.431 0.125C198.562 0.125 172.293 10.9602 150.622 32.6307C128.952 54.3012 118.117 80.5708 118.117 111.44C118.117 118.923 118.896 126.25 120.455 133.422C122.014 140.593 124.041 147.765 126.535 154.936L5.39886 275.605C1.96899 279.035 0.254089 283.167 0.254089 288C0.254089 292.832 1.96899 296.964 5.39886 300.394L40.9447 333.133C44.3746 336.563 48.428 338.278 53.1051 338.278C57.7822 338.278 61.8357 336.563 65.2655 333.133ZM52.1697 306.474L33.4614 287.766L161.146 160.081C156.157 153.533 152.415 145.816 149.921 136.93C147.426 128.043 146.179 119.547 146.179 111.44C146.179 88.0542 154.832 68.2545 172.137 52.0406C189.442 35.8267 209.164 27.5639 231.302 27.2521L184.063 75.426C181.257 78.2323 179.854 81.6622 179.854 85.7156C179.854 89.7691 181.257 93.199 184.063 96.0052L245.801 154.001C248.607 156.807 252.037 158.21 256.091 158.21C260.144 158.21 263.574 156.807 266.38 154.001L311.748 109.101C310.812 133.11 302.316 152.91 286.258 168.5C270.2 184.09 251.258 191.885 229.431 191.885C221.636 191.885 213.373 190.638 204.643 188.144C195.912 185.649 188.273 181.908 181.725 176.919L52.1697 306.474Z" fill="black" fill-opacity="0.25"/>
</svg>
